<?xml version="1.0" standalone="no"?><!-- Generator: Gravit.io --><svg xmlns="http://www.w3.org/2000/svg" xmlns:xlink="http://www.w3.org/1999/xlink" style="isolation:isolate" viewBox="0 0 230 160" width="230" height="160"><defs><clipPath id="_clipPath_jOZ69WDNAw38bStQ72CBKSL2IKJEvbKT"><rect width="230" height="160"/></clipPath></defs><g clip-path="url(#_clipPath_jOZ69WDNAw38bStQ72CBKSL2IKJEvbKT)"><g><rect x="4.75" y="12.383" width="55.813" height="41.321" transform="matrix(1,0,0,1,0,0)" fill="rgb(255,255,255)" vector-effect="non-scaling-stroke" stroke-width="1" stroke="rgb(0,0,0)" stroke-linejoin="miter" stroke-linecap="butt" stroke-miterlimit="2"/><line x1="18.53" y1="25.897" x2="29.877" y2="37.288" vector-effect="non-scaling-stroke" stroke-width="1" stroke="rgb(0,0,0)" stroke-linejoin="miter" stroke-linecap="butt" stroke-miterlimit="4"/><path d="M 13.402 18.473 L 20.666 18.473 C 21.77 18.473 22.666 19.369 22.666 20.473 L 22.666 24.166 C 22.666 25.27 21.77 26.166 20.666 26.166 L 13.402 26.166 C 12.298 26.166 11.402 25.27 11.402 24.166 L 11.402 20.473 C 11.402 19.369 12.298 18.473 13.402 18.473 Z" style="stroke:none;fill:#FFD4AA;stroke-miterlimit:10;"/><path d="M 13.402 18.473 L 20.666 18.473 C 21.77 18.473 22.666 19.369 22.666 20.473 L 22.666 24.166 C 22.666 25.27 21.77 26.166 20.666 26.166 L 13.402 26.166 C 12.298 26.166 11.402 25.27 11.402 24.166 L 11.402 20.473 C 11.402 19.369 12.298 18.473 13.402 18.473 Z" style="fill:none;stroke:#000000;stroke-width:1;stroke-miterlimit:2;"/><line x1="37.288" y1="37.735" x2="42.615" y2="31.481" vector-effect="non-scaling-stroke" stroke-width="1" stroke="rgb(0,0,0)" stroke-linejoin="miter" stroke-linecap="butt" stroke-miterlimit="4"/><path d="M 29.504 37.203 L 34.374 37.203 C 36.03 37.203 37.374 38.548 37.374 40.203 L 37.374 41.38 C 37.374 43.036 36.03 44.38 34.374 44.38 L 29.504 44.38 C 27.848 44.38 26.504 43.036 26.504 41.38 L 26.504 40.203 C 26.504 38.548 27.848 37.203 29.504 37.203 Z" style="stroke:none;fill:#FFD4AA;stroke-miterlimit:2;"/><path d="M 29.504 37.203 L 34.374 37.203 C 36.03 37.203 37.374 38.548 37.374 40.203 L 37.374 41.38 C 37.374 43.036 36.03 44.38 34.374 44.38 L 29.504 44.38 C 27.848 44.38 26.504 43.036 26.504 41.38 L 26.504 40.203 C 26.504 38.548 27.848 37.203 29.504 37.203 Z" style="fill:none;stroke:#000000;stroke-width:1;stroke-miterlimit:2;"/><path d="M 42.661 24.372 L 51.925 24.372 C 52.477 24.372 52.925 24.82 52.925 25.372 L 52.925 31.065 C 52.925 31.617 52.477 32.065 51.925 32.065 L 42.661 32.065 C 42.109 32.065 41.661 31.617 41.661 31.065 L 41.661 25.372 C 41.661 24.82 42.109 24.372 42.661 24.372 Z" style="stroke:none;fill:#FFD4AA;stroke-miterlimit:2;"/><path d="M 42.661 24.372 L 51.925 24.372 C 52.477 24.372 52.925 24.82 52.925 25.372 L 52.925 31.065 C 52.925 31.617 52.477 32.065 51.925 32.065 L 42.661 32.065 C 42.109 32.065 41.661 31.617 41.661 31.065 L 41.661 25.372 C 41.661 24.82 42.109 24.372 42.661 24.372 Z" style="fill:none;stroke:#000000;stroke-width:1;stroke-miterlimit:2;"/><rect x="75.106" y="28.536" width="55.813" height="41.321" transform="matrix(1,0,0,1,0,0)" fill="rgb(255,255,255)" vector-effect="non-scaling-stroke" stroke-width="1" stroke="rgb(0,0,0)" stroke-linejoin="miter" stroke-linecap="butt" stroke-miterlimit="2"/><line x1="88.885" y1="42.049" x2="100.233" y2="53.441" vector-effect="non-scaling-stroke" stroke-width="1" stroke="rgb(0,0,0)" stroke-linejoin="miter" stroke-linecap="butt" stroke-miterlimit="4"/><path d="M 83.758 34.626 L 91.021 34.626 C 92.125 34.626 93.021 35.522 93.021 36.626 L 93.021 40.319 C 93.021 41.423 92.125 42.319 91.021 42.319 L 83.758 42.319 C 82.654 42.319 81.758 41.423 81.758 40.319 L 81.758 36.626 C 81.758 35.522 82.654 34.626 83.758 34.626 Z" style="stroke:none;fill:#FFD4AA;stroke-miterlimit:2;"/><path d="M 83.758 34.626 L 91.021 34.626 C 92.125 34.626 93.021 35.522 93.021 36.626 L 93.021 40.319 C 93.021 41.423 92.125 42.319 91.021 42.319 L 83.758 42.319 C 82.654 42.319 81.758 41.423 81.758 40.319 L 81.758 36.626 C 81.758 35.522 82.654 34.626 83.758 34.626 Z" style="fill:none;stroke:#000000;stroke-width:1;stroke-miterlimit:2;"/><line x1="107.644" y1="53.887" x2="112.97" y2="47.633" vector-effect="non-scaling-stroke" stroke-width="1" stroke="rgb(0,0,0)" stroke-linejoin="miter" stroke-linecap="butt" stroke-miterlimit="4"/><path d="M 99.859 53.356 L 104.73 53.356 C 106.385 53.356 107.73 54.7 107.73 56.356 L 107.73 57.533 C 107.73 59.189 106.385 60.533 104.73 60.533 L 99.859 60.533 C 98.203 60.533 96.859 59.189 96.859 57.533 L 96.859 56.356 C 96.859 54.7 98.203 53.356 99.859 53.356 Z" style="stroke:none;fill:#FFD4AA;stroke-miterlimit:2;"/><path d="M 99.859 53.356 L 104.73 53.356 C 106.385 53.356 107.73 54.7 107.73 56.356 L 107.73 57.533 C 107.73 59.189 106.385 60.533 104.73 60.533 L 99.859 60.533 C 98.203 60.533 96.859 59.189 96.859 57.533 L 96.859 56.356 C 96.859 54.7 98.203 53.356 99.859 53.356 Z" style="fill:none;stroke:#000000;stroke-width:1;stroke-miterlimit:2;"/><path d="M 113.017 40.525 L 122.28 40.525 C 122.832 40.525 123.28 40.973 123.28 41.525 L 123.28 47.218 C 123.28 47.77 122.832 48.218 122.28 48.218 L 113.017 48.218 C 112.465 48.218 112.017 47.77 112.017 47.218 L 112.017 41.525 C 112.017 40.973 112.465 40.525 113.017 40.525 Z" style="stroke:none;fill:#FFD4AA;stroke-miterlimit:2;"/><path d="M 113.017 40.525 L 122.28 40.525 C 122.832 40.525 123.28 40.973 123.28 41.525 L 123.28 47.218 C 123.28 47.77 122.832 48.218 122.28 48.218 L 113.017 48.218 C 112.465 48.218 112.017 47.77 112.017 47.218 L 112.017 41.525 C 112.017 40.973 112.465 40.525 113.017 40.525 Z" style="fill:none;stroke:#000000;stroke-width:1;stroke-miterlimit:2;"/><rect x="169.437" y="27.034" width="55.813" height="41.321" transform="matrix(1,0,0,1,0,0)" fill="rgb(255,255,255)" vector-effect="non-scaling-stroke" stroke-width="1" stroke="rgb(0,0,0)" stroke-linejoin="miter" stroke-linecap="butt" stroke-miterlimit="2"/><line x1="183.217" y1="40.547" x2="194.565" y2="51.938" vector-effect="non-scaling-stroke" stroke-width="1" stroke="rgb(0,0,0)" stroke-linejoin="miter" stroke-linecap="butt" stroke-miterlimit="4"/><path d="M 178.089 33.123 L 185.353 33.123 C 186.457 33.123 187.353 34.019 187.353 35.123 L 187.353 38.816 C 187.353 39.92 186.457 40.816 185.353 40.816 L 178.089 40.816 C 176.985 40.816 176.089 39.92 176.089 38.816 L 176.089 35.123 C 176.089 34.019 176.985 33.123 178.089 33.123 Z" style="stroke:none;fill:#FFD4AA;stroke-miterlimit:2;"/><path d="M 178.089 33.123 L 185.353 33.123 C 186.457 33.123 187.353 34.019 187.353 35.123 L 187.353 38.816 C 187.353 39.92 186.457 40.816 185.353 40.816 L 178.089 40.816 C 176.985 40.816 176.089 39.92 176.089 38.816 L 176.089 35.123 C 176.089 34.019 176.985 33.123 178.089 33.123 Z" style="fill:none;stroke:#000000;stroke-width:1;stroke-miterlimit:2;"/><line x1="201.975" y1="52.385" x2="207.302" y2="46.131" vector-effect="non-scaling-stroke" stroke-width="1" stroke="rgb(0,0,0)" stroke-linejoin="miter" stroke-linecap="butt" stroke-miterlimit="4"/><path d="M 194.191 51.854 L 199.061 51.854 C 200.717 51.854 202.061 53.198 202.061 54.854 L 202.061 56.03 C 202.061 57.686 200.717 59.03 199.061 59.03 L 194.191 59.03 C 192.535 59.03 191.191 57.686 191.191 56.03 L 191.191 54.854 C 191.191 53.198 192.535 51.854 194.191 51.854 Z" style="stroke:none;fill:#FFD4AA;stroke-miterlimit:2;"/><path d="M 194.191 51.854 L 199.061 51.854 C 200.717 51.854 202.061 53.198 202.061 54.854 L 202.061 56.03 C 202.061 57.686 200.717 59.03 199.061 59.03 L 194.191 59.03 C 192.535 59.03 191.191 57.686 191.191 56.03 L 191.191 54.854 C 191.191 53.198 192.535 51.854 194.191 51.854 Z" style="fill:none;stroke:#000000;stroke-width:1;stroke-miterlimit:2;"/><path d="M 207.348 39.022 L 216.612 39.022 C 217.164 39.022 217.612 39.47 217.612 40.022 L 217.612 45.716 C 217.612 46.268 217.164 46.716 216.612 46.716 L 207.348 46.716 C 206.796 46.716 206.348 46.268 206.348 45.716 L 206.348 40.022 C 206.348 39.47 206.796 39.022 207.348 39.022 Z" style="stroke:none;fill:#FFD4AA;stroke-miterlimit:2;"/><path d="M 207.348 39.022 L 216.612 39.022 C 217.164 39.022 217.612 39.47 217.612 40.022 L 217.612 45.716 C 217.612 46.268 217.164 46.716 216.612 46.716 L 207.348 46.716 C 206.796 46.716 206.348 46.268 206.348 45.716 L 206.348 40.022 C 206.348 39.47 206.796 39.022 207.348 39.022 Z" style="fill:none;stroke:#000000;stroke-width:1;stroke-miterlimit:2;"/><rect x="139.566" y="60.842" width="55.813" height="41.321" transform="matrix(1,0,0,1,0,0)" fill="rgb(255,255,255)" vector-effect="non-scaling-stroke" stroke-width="1" stroke="rgb(0,0,0)" stroke-linejoin="miter" stroke-linecap="butt" stroke-miterlimit="2"/><line x1="153.345" y1="74.355" x2="164.693" y2="85.746" vector-effect="non-scaling-stroke" stroke-width="1" stroke="rgb(0,0,0)" stroke-linejoin="miter" stroke-linecap="butt" stroke-miterlimit="4"/><path d="M 148.218 66.931 L 155.481 66.931 C 156.585 66.931 157.481 67.828 157.481 68.931 L 157.481 72.625 C 157.481 73.729 156.585 74.625 155.481 74.625 L 148.218 74.625 C 147.114 74.625 146.218 73.729 146.218 72.625 L 146.218 68.931 C 146.218 67.828 147.114 66.931 148.218 66.931 Z" style="stroke:none;fill:#FFD4AA;stroke-miterlimit:2;"/><path d="M 148.218 66.931 L 155.481 66.931 C 156.585 66.931 157.481 67.828 157.481 68.931 L 157.481 72.625 C 157.481 73.729 156.585 74.625 155.481 74.625 L 148.218 74.625 C 147.114 74.625 146.218 73.729 146.218 72.625 L 146.218 68.931 C 146.218 67.828 147.114 66.931 148.218 66.931 Z" style="fill:none;stroke:#000000;stroke-width:1;stroke-miterlimit:2;"/><line x1="172.104" y1="86.193" x2="177.43" y2="79.939" vector-effect="non-scaling-stroke" stroke-width="1" stroke="rgb(0,0,0)" stroke-linejoin="miter" stroke-linecap="butt" stroke-miterlimit="4"/><path d="M 164.319 85.662 L 169.19 85.662 C 170.845 85.662 172.19 87.006 172.19 88.662 L 172.19 89.839 C 172.19 91.494 170.845 92.839 169.19 92.839 L 164.319 92.839 C 162.663 92.839 161.319 91.494 161.319 89.839 L 161.319 88.662 C 161.319 87.006 162.663 85.662 164.319 85.662 Z" style="stroke:none;fill:#FFD4AA;stroke-miterlimit:2;"/><path d="M 164.319 85.662 L 169.19 85.662 C 170.845 85.662 172.19 87.006 172.19 88.662 L 172.19 89.839 C 172.19 91.494 170.845 92.839 169.19 92.839 L 164.319 92.839 C 162.663 92.839 161.319 91.494 161.319 89.839 L 161.319 88.662 C 161.319 87.006 162.663 85.662 164.319 85.662 Z" style="fill:none;stroke:#000000;stroke-width:1;stroke-miterlimit:2;"/><path d="M 177.477 72.831 L 186.74 72.831 C 187.292 72.831 187.74 73.279 187.74 73.831 L 187.74 79.524 C 187.74 80.076 187.292 80.524 186.74 80.524 L 177.477 80.524 C 176.925 80.524 176.477 80.076 176.477 79.524 L 176.477 73.831 C 176.477 73.279 176.925 72.831 177.477 72.831 Z" style="stroke:none;fill:#FFD4AA;stroke-miterlimit:2;"/><path d="M 177.477 72.831 L 186.74 72.831 C 187.292 72.831 187.74 73.279 187.74 73.831 L 187.74 79.524 C 187.74 80.076 187.292 80.524 186.74 80.524 L 177.477 80.524 C 176.925 80.524 176.477 80.076 176.477 79.524 L 176.477 73.831 C 176.477 73.279 176.925 72.831 177.477 72.831 Z" style="fill:none;stroke:#000000;stroke-width:1;stroke-miterlimit:2;"/><rect x="52.309" y="94.65" width="55.813" height="41.321" transform="matrix(1,0,0,1,0,0)" fill="rgb(255,255,255)" vector-effect="non-scaling-stroke" stroke-width="1" stroke="rgb(0,0,0)" stroke-linejoin="miter" stroke-linecap="butt" stroke-miterlimit="2"/><line x1="66.088" y1="108.163" x2="77.436" y2="119.555" vector-effect="non-scaling-stroke" stroke-width="1" stroke="rgb(0,0,0)" stroke-linejoin="miter" stroke-linecap="butt" stroke-miterlimit="4"/><path d="M 60.961 100.74 L 68.225 100.74 C 69.328 100.74 70.225 101.636 70.225 102.74 L 70.225 106.433 C 70.225 107.537 69.328 108.433 68.225 108.433 L 60.961 108.433 C 59.857 108.433 58.961 107.537 58.961 106.433 L 58.961 102.74 C 58.961 101.636 59.857 100.74 60.961 100.74 Z" style="stroke:none;fill:#FFD4AA;stroke-miterlimit:2;"/><path d="M 60.961 100.74 L 68.225 100.74 C 69.328 100.74 70.225 101.636 70.225 102.74 L 70.225 106.433 C 70.225 107.537 69.328 108.433 68.225 108.433 L 60.961 108.433 C 59.857 108.433 58.961 107.537 58.961 106.433 L 58.961 102.74 C 58.961 101.636 59.857 100.74 60.961 100.74 Z" style="fill:none;stroke:#000000;stroke-width:1;stroke-miterlimit:2;"/><line x1="84.847" y1="120.001" x2="90.174" y2="113.747" vector-effect="non-scaling-stroke" stroke-width="1" stroke="rgb(0,0,0)" stroke-linejoin="miter" stroke-linecap="butt" stroke-miterlimit="4"/><path d="M 77.062 119.47 L 81.933 119.47 C 83.589 119.47 84.933 120.814 84.933 122.47 L 84.933 123.647 C 84.933 125.303 83.589 126.647 81.933 126.647 L 77.062 126.647 C 75.407 126.647 74.062 125.303 74.062 123.647 L 74.062 122.47 C 74.062 120.814 75.407 119.47 77.062 119.47 Z" style="stroke:none;fill:#FFD4AA;stroke-miterlimit:2;"/><path d="M 77.062 119.47 L 81.933 119.47 C 83.589 119.47 84.933 120.814 84.933 122.47 L 84.933 123.647 C 84.933 125.303 83.589 126.647 81.933 126.647 L 77.062 126.647 C 75.407 126.647 74.062 125.303 74.062 123.647 L 74.062 122.47 C 74.062 120.814 75.407 119.47 77.062 119.47 Z" style="fill:none;stroke:#000000;stroke-width:1;stroke-miterlimit:2;"/><path d="M 90.22 106.639 L 99.483 106.639 C 100.035 106.639 100.483 107.087 100.483 107.639 L 100.483 113.332 C 100.483 113.884 100.035 114.332 99.483 114.332 L 90.22 114.332 C 89.668 114.332 89.22 113.884 89.22 113.332 L 89.22 107.639 C 89.22 107.087 89.668 106.639 90.22 106.639 Z" style="stroke:none;fill:#FFD4AA;stroke-miterlimit:2;"/><path d="M 90.22 106.639 L 99.483 106.639 C 100.035 106.639 100.483 107.087 100.483 107.639 L 100.483 113.332 C 100.483 113.884 100.035 114.332 99.483 114.332 L 90.22 114.332 C 89.668 114.332 89.22 113.884 89.22 113.332 L 89.22 107.639 C 89.22 107.087 89.668 106.639 90.22 106.639 Z" style="fill:none;stroke:#000000;stroke-width:1;stroke-miterlimit:2;"/><rect x="13.79" y="63.096" width="55.813" height="41.321" transform="matrix(1,0,0,1,0,0)" fill="rgb(255,255,255)" vector-effect="non-scaling-stroke" stroke-width="1" stroke="rgb(0,0,0)" stroke-linejoin="miter" stroke-linecap="butt" stroke-miterlimit="2"/><line x1="27.57" y1="76.609" x2="38.917" y2="88" vector-effect="non-scaling-stroke" stroke-width="1" stroke="rgb(0,0,0)" stroke-linejoin="miter" stroke-linecap="butt" stroke-miterlimit="4"/><path d="M 22.442 69.185 L 29.706 69.185 C 30.81 69.185 31.706 70.081 31.706 71.185 L 31.706 74.879 C 31.706 75.982 30.81 76.879 29.706 76.879 L 22.442 76.879 C 21.338 76.879 20.442 75.982 20.442 74.879 L 20.442 71.185 C 20.442 70.081 21.338 69.185 22.442 69.185 Z" style="stroke:none;fill:#FFD4AA;stroke-miterlimit:2;"/><path d="M 22.442 69.185 L 29.706 69.185 C 30.81 69.185 31.706 70.081 31.706 71.185 L 31.706 74.879 C 31.706 75.982 30.81 76.879 29.706 76.879 L 22.442 76.879 C 21.338 76.879 20.442 75.982 20.442 74.879 L 20.442 71.185 C 20.442 70.081 21.338 69.185 22.442 69.185 Z" style="fill:none;stroke:#000000;stroke-width:1;stroke-miterlimit:2;"/><line x1="46.328" y1="88.447" x2="51.655" y2="82.193" vector-effect="non-scaling-stroke" stroke-width="1" stroke="rgb(0,0,0)" stroke-linejoin="miter" stroke-linecap="butt" stroke-miterlimit="4"/><path d="M 38.544 87.916 L 43.414 87.916 C 45.07 87.916 46.414 89.26 46.414 90.916 L 46.414 92.093 C 46.414 93.748 45.07 95.093 43.414 95.093 L 38.544 95.093 C 36.888 95.093 35.544 93.748 35.544 92.093 L 35.544 90.916 C 35.544 89.26 36.888 87.916 38.544 87.916 Z" style="stroke:none;fill:#FFD4AA;stroke-miterlimit:2;"/><path d="M 38.544 87.916 L 43.414 87.916 C 45.07 87.916 46.414 89.26 46.414 90.916 L 46.414 92.093 C 46.414 93.748 45.07 95.093 43.414 95.093 L 38.544 95.093 C 36.888 95.093 35.544 93.748 35.544 92.093 L 35.544 90.916 C 35.544 89.26 36.888 87.916 38.544 87.916 Z" style="fill:none;stroke:#000000;stroke-width:1;stroke-miterlimit:2;"/><path d="M 51.701 75.084 L 60.965 75.084 C 61.517 75.084 61.965 75.533 61.965 76.084 L 61.965 81.778 C 61.965 82.33 61.517 82.778 60.965 82.778 L 51.701 82.778 C 51.149 82.778 50.701 82.33 50.701 81.778 L 50.701 76.084 C 50.701 75.533 51.149 75.084 51.701 75.084 Z" style="stroke:none;fill:#FFD4AA;stroke-miterlimit:2;"/><path d="M 51.701 75.084 L 60.965 75.084 C 61.517 75.084 61.965 75.533 61.965 76.084 L 61.965 81.778 C 61.965 82.33 61.517 82.778 60.965 82.778 L 51.701 82.778 C 51.149 82.778 50.701 82.33 50.701 81.778 L 50.701 76.084 C 50.701 75.533 51.149 75.084 51.701 75.084 Z" style="fill:none;stroke:#000000;stroke-width:1;stroke-miterlimit:2;"/><rect x="86.897" y="79.624" width="55.813" height="41.321" transform="matrix(1,0,0,1,0,0)" fill="rgb(255,255,255)" vector-effect="non-scaling-stroke" stroke-width="1" stroke="rgb(0,0,0)" stroke-linejoin="miter" stroke-linecap="butt" stroke-miterlimit="2"/><line x1="100.677" y1="93.138" x2="112.024" y2="104.529" vector-effect="non-scaling-stroke" stroke-width="1" stroke="rgb(0,0,0)" stroke-linejoin="miter" stroke-linecap="butt" stroke-miterlimit="4"/><path d="M 95.549 85.714 L 102.813 85.714 C 103.917 85.714 104.813 86.61 104.813 87.714 L 104.813 91.407 C 104.813 92.511 103.917 93.407 102.813 93.407 L 95.549 93.407 C 94.445 93.407 93.549 92.511 93.549 91.407 L 93.549 87.714 C 93.549 86.61 94.445 85.714 95.549 85.714 Z" style="stroke:none;fill:#FFD4AA;stroke-miterlimit:2;"/><path d="M 95.549 85.714 L 102.813 85.714 C 103.917 85.714 104.813 86.61 104.813 87.714 L 104.813 91.407 C 104.813 92.511 103.917 93.407 102.813 93.407 L 95.549 93.407 C 94.445 93.407 93.549 92.511 93.549 91.407 L 93.549 87.714 C 93.549 86.61 94.445 85.714 95.549 85.714 Z" style="fill:none;stroke:#000000;stroke-width:1;stroke-miterlimit:2;"/><line x1="119.435" y1="104.975" x2="124.762" y2="98.721" vector-effect="non-scaling-stroke" stroke-width="1" stroke="rgb(0,0,0)" stroke-linejoin="miter" stroke-linecap="butt" stroke-miterlimit="4"/><path d="M 111.651 104.444 L 116.521 104.444 C 118.177 104.444 119.521 105.789 119.521 107.444 L 119.521 108.621 C 119.521 110.277 118.177 111.621 116.521 111.621 L 111.651 111.621 C 109.995 111.621 108.651 110.277 108.651 108.621 L 108.651 107.444 C 108.651 105.789 109.995 104.444 111.651 104.444 Z" style="stroke:none;fill:#FFD4AA;stroke-miterlimit:2;"/><path d="M 111.651 104.444 L 116.521 104.444 C 118.177 104.444 119.521 105.789 119.521 107.444 L 119.521 108.621 C 119.521 110.277 118.177 111.621 116.521 111.621 L 111.651 111.621 C 109.995 111.621 108.651 110.277 108.651 108.621 L 108.651 107.444 C 108.651 105.789 109.995 104.444 111.651 104.444 Z" style="fill:none;stroke:#000000;stroke-width:1;stroke-miterlimit:2;"/><path d="M 124.808 91.613 L 134.072 91.613 C 134.624 91.613 135.072 92.061 135.072 92.613 L 135.072 98.306 C 135.072 98.858 134.624 99.306 134.072 99.306 L 124.808 99.306 C 124.256 99.306 123.808 98.858 123.808 98.306 L 123.808 92.613 C 123.808 92.061 124.256 91.613 124.808 91.613 Z" style="stroke:none;fill:#FFD4AA;stroke-miterlimit:2;"/><path d="M 124.808 91.613 L 134.072 91.613 C 134.624 91.613 135.072 92.061 135.072 92.613 L 135.072 98.306 C 135.072 98.858 134.624 99.306 134.072 99.306 L 124.808 99.306 C 124.256 99.306 123.808 98.858 123.808 98.306 L 123.808 92.613 C 123.808 92.061 124.256 91.613 124.808 91.613 Z" style="fill:none;stroke:#000000;stroke-width:1;stroke-miterlimit:2;"/><rect x="149.785" y="111.179" width="55.813" height="41.321" transform="matrix(1,0,0,1,0,0)" fill="rgb(255,255,255)" vector-effect="non-scaling-stroke" stroke-width="1" stroke="rgb(0,0,0)" stroke-linejoin="miter" stroke-linecap="butt" stroke-miterlimit="2"/><line x1="163.564" y1="124.692" x2="174.912" y2="136.083" vector-effect="non-scaling-stroke" stroke-width="1" stroke="rgb(0,0,0)" stroke-linejoin="miter" stroke-linecap="butt" stroke-miterlimit="4"/><path d="M 158.437 117.268 L 165.7 117.268 C 166.804 117.268 167.7 118.164 167.7 119.268 L 167.7 122.962 C 167.7 124.065 166.804 124.962 165.7 124.962 L 158.437 124.962 C 157.333 124.962 156.437 124.065 156.437 122.962 L 156.437 119.268 C 156.437 118.164 157.333 117.268 158.437 117.268 Z" style="stroke:none;fill:#FFD4AA;stroke-miterlimit:2;"/><path d="M 158.437 117.268 L 165.7 117.268 C 166.804 117.268 167.7 118.164 167.7 119.268 L 167.7 122.962 C 167.7 124.065 166.804 124.962 165.7 124.962 L 158.437 124.962 C 157.333 124.962 156.437 124.065 156.437 122.962 L 156.437 119.268 C 156.437 118.164 157.333 117.268 158.437 117.268 Z" style="fill:none;stroke:#000000;stroke-width:1;stroke-miterlimit:2;"/><line x1="182.323" y1="136.53" x2="187.649" y2="130.276" vector-effect="non-scaling-stroke" stroke-width="1" stroke="rgb(0,0,0)" stroke-linejoin="miter" stroke-linecap="butt" stroke-miterlimit="4"/><path d="M 174.538 135.999 L 179.409 135.999 C 181.065 135.999 182.409 137.343 182.409 138.999 L 182.409 140.176 C 182.409 141.831 181.065 143.176 179.409 143.176 L 174.538 143.176 C 172.883 143.176 171.538 141.831 171.538 140.176 L 171.538 138.999 C 171.538 137.343 172.883 135.999 174.538 135.999 Z" style="stroke:none;fill:#FFD4AA;stroke-miterlimit:2;"/><path d="M 174.538 135.999 L 179.409 135.999 C 181.065 135.999 182.409 137.343 182.409 138.999 L 182.409 140.176 C 182.409 141.831 181.065 143.176 179.409 143.176 L 174.538 143.176 C 172.883 143.176 171.538 141.831 171.538 140.176 L 171.538 138.999 C 171.538 137.343 172.883 135.999 174.538 135.999 Z" style="fill:none;stroke:#000000;stroke-width:1;stroke-miterlimit:2;"/><path d="M 187.696 123.167 L 196.959 123.167 C 197.511 123.167 197.959 123.615 197.959 124.167 L 197.959 129.861 C 197.959 130.413 197.511 130.861 196.959 130.861 L 187.696 130.861 C 187.144 130.861 186.696 130.413 186.696 129.861 L 186.696 124.167 C 186.696 123.615 187.144 123.167 187.696 123.167 Z" style="stroke:none;fill:#FFD4AA;stroke-miterlimit:2;"/><path d="M 187.696 123.167 L 196.959 123.167 C 197.511 123.167 197.959 123.615 197.959 124.167 L 197.959 129.861 C 197.959 130.413 197.511 130.861 196.959 130.861 L 187.696 130.861 C 187.144 130.861 186.696 130.413 186.696 129.861 L 186.696 124.167 C 186.696 123.615 187.144 123.167 187.696 123.167 Z" style="fill:none;stroke:#000000;stroke-width:1;stroke-miterlimit:2;"/><rect x="110.48" y="7.5" width="55.813" height="41.321" transform="matrix(1,0,0,1,0,0)" fill="rgb(255,255,255)" vector-effect="non-scaling-stroke" stroke-width="1" stroke="rgb(0,0,0)" stroke-linejoin="miter" stroke-linecap="butt" stroke-miterlimit="2"/><line x1="124.259" y1="21.013" x2="135.607" y2="32.404" vector-effect="non-scaling-stroke" stroke-width="1" stroke="rgb(0,0,0)" stroke-linejoin="miter" stroke-linecap="butt" stroke-miterlimit="4"/><path d="M 119.132 13.589 L 126.396 13.589 C 127.499 13.589 128.396 14.486 128.396 15.589 L 128.396 19.283 C 128.396 20.387 127.499 21.283 126.396 21.283 L 119.132 21.283 C 118.028 21.283 117.132 20.387 117.132 19.283 L 117.132 15.589 C 117.132 14.486 118.028 13.589 119.132 13.589 Z" style="stroke:none;fill:#FFD4AA;stroke-miterlimit:2;"/><path d="M 119.132 13.589 L 126.396 13.589 C 127.499 13.589 128.396 14.486 128.396 15.589 L 128.396 19.283 C 128.396 20.387 127.499 21.283 126.396 21.283 L 119.132 21.283 C 118.028 21.283 117.132 20.387 117.132 19.283 L 117.132 15.589 C 117.132 14.486 118.028 13.589 119.132 13.589 Z" style="fill:none;stroke:#000000;stroke-width:1;stroke-miterlimit:2;"/><line x1="143.018" y1="32.851" x2="148.345" y2="26.597" vector-effect="non-scaling-stroke" stroke-width="1" stroke="rgb(0,0,0)" stroke-linejoin="miter" stroke-linecap="butt" stroke-miterlimit="4"/><path d="M 135.234 32.32 L 140.104 32.32 C 141.76 32.32 143.104 33.664 143.104 35.32 L 143.104 36.497 C 143.104 38.153 141.76 39.497 140.104 39.497 L 135.234 39.497 C 133.578 39.497 132.234 38.153 132.234 36.497 L 132.234 35.32 C 132.234 33.664 133.578 32.32 135.234 32.32 Z" style="stroke:none;fill:#FFD4AA;stroke-miterlimit:2;"/><path d="M 135.234 32.32 L 140.104 32.32 C 141.76 32.32 143.104 33.664 143.104 35.32 L 143.104 36.497 C 143.104 38.153 141.76 39.497 140.104 39.497 L 135.234 39.497 C 133.578 39.497 132.234 38.153 132.234 36.497 L 132.234 35.32 C 132.234 33.664 133.578 32.32 135.234 32.32 Z" style="fill:none;stroke:#000000;stroke-width:1;stroke-miterlimit:2;"/><path d="M 148.391 19.489 L 157.655 19.489 C 158.207 19.489 158.655 19.937 158.655 20.489 L 158.655 26.182 C 158.655 26.734 158.207 27.182 157.655 27.182 L 148.391 27.182 C 147.839 27.182 147.391 26.734 147.391 26.182 L 147.391 20.489 C 147.391 19.937 147.839 19.489 148.391 19.489 Z" style="stroke:none;fill:#FFD4AA;stroke-miterlimit:2;"/><path d="M 148.391 19.489 L 157.655 19.489 C 158.207 19.489 158.655 19.937 158.655 20.489 L 158.655 26.182 C 158.655 26.734 158.207 27.182 157.655 27.182 L 148.391 27.182 C 147.839 27.182 147.391 26.734 147.391 26.182 L 147.391 20.489 C 147.391 19.937 147.839 19.489 148.391 19.489 Z" style="fill:none;stroke:#000000;stroke-width:1;stroke-miterlimit:2;"/><g transform="matrix(0.393,0,0,0.517,11.857,18.262)"><text transform="matrix(1,0,0,1,0,7.482)" style="font-family:'Open Sans';font-weight:400;font-size:7px;font-style:normal;fill:#0000FF;stroke:none;">Drug1</text></g><g transform="matrix(0.393,0,0,0.517,27.056,37.408)"><text transform="matrix(1,0,0,1,0,7.482)" style="font-family:'Open Sans';font-weight:400;font-size:7px;font-style:normal;fill:#0000FF;stroke:none;">Serum</text></g><g transform="matrix(0.393,0,0,0.517,42.244,23.814)"><text transform="matrix(1,0,0,1,0,7.482)" style="font-family:'Open Sans';font-weight:400;font-size:7px;font-style:normal;fill:#0000FF;stroke:none;">Name</text></g><g transform="matrix(0.393,0,0,0.517,82.212,34.414)"><text transform="matrix(1,0,0,1,0,6.413)" style="font-family:'Open Sans';font-weight:400;font-size:6px;font-style:normal;fill:#0000FF;stroke:none;">Drug1</text></g><g transform="matrix(0.393,0,0,0.517,97.411,53.561)"><text transform="matrix(1,0,0,1,0,6.413)" style="font-family:'Open Sans';font-weight:400;font-size:6px;font-style:normal;fill:#0000FF;stroke:none;">Serum</text></g><g transform="matrix(0.393,0,0,0.517,112.6,39.967)"><text transform="matrix(1,0,0,1,0,6.413)" style="font-family:'Open Sans';font-weight:400;font-size:6px;font-style:normal;fill:#0000FF;stroke:none;">Name</text></g><g transform="matrix(0.393,0,0,0.517,176.544,32.912)"><text transform="matrix(1,0,0,1,0,6.413)" style="font-family:'Open Sans';font-weight:400;font-size:6px;font-style:normal;fill:#0000FF;stroke:none;">Drug1</text></g><g transform="matrix(0.393,0,0,0.517,191.743,52.059)"><text transform="matrix(1,0,0,1,0,6.413)" style="font-family:'Open Sans';font-weight:400;font-size:6px;font-style:normal;fill:#0000FF;stroke:none;">Serum</text></g><g transform="matrix(0.393,0,0,0.517,206.931,38.464)"><text transform="matrix(1,0,0,1,0,6.413)" style="font-family:'Open Sans';font-weight:400;font-size:6px;font-style:normal;fill:#0000FF;stroke:none;">Name</text></g><g transform="matrix(0.393,0,0,0.517,146.672,66.72)"><text transform="matrix(1,0,0,1,0,6.413)" style="font-family:'Open Sans';font-weight:400;font-size:6px;font-style:normal;fill:#0000FF;stroke:none;">Drug1</text></g><g transform="matrix(0.393,0,0,0.517,161.871,85.867)"><text transform="matrix(1,0,0,1,0,6.413)" style="font-family:'Open Sans';font-weight:400;font-size:6px;font-style:normal;fill:#0000FF;stroke:none;">Serum</text></g><g transform="matrix(0.393,0,0,0.517,177.06,72.273)"><text transform="matrix(1,0,0,1,0,6.413)" style="font-family:'Open Sans';font-weight:400;font-size:6px;font-style:normal;fill:#0000FF;stroke:none;">Name</text></g><g transform="matrix(0.393,0,0,0.517,59.416,100.529)"><text transform="matrix(1,0,0,1,0,6.413)" style="font-family:'Open Sans';font-weight:400;font-size:6px;font-style:normal;fill:#0000FF;stroke:none;">Drug1</text></g><g transform="matrix(0.393,0,0,0.517,74.615,119.675)"><text transform="matrix(1,0,0,1,0,6.413)" style="font-family:'Open Sans';font-weight:400;font-size:6px;font-style:normal;fill:#0000FF;stroke:none;">Serum</text></g><g transform="matrix(0.393,0,0,0.517,89.803,106.081)"><text transform="matrix(1,0,0,1,0,6.413)" style="font-family:'Open Sans';font-weight:400;font-size:6px;font-style:normal;fill:#0000FF;stroke:none;">Name</text></g><g transform="matrix(0.393,0,0,0.517,20.897,68.974)"><text transform="matrix(1,0,0,1,0,6.413)" style="font-family:'Open Sans';font-weight:400;font-size:6px;font-style:normal;fill:#0000FF;stroke:none;">Drug1</text></g><g transform="matrix(0.393,0,0,0.517,36.096,88.121)"><text transform="matrix(1,0,0,1,0,6.413)" style="font-family:'Open Sans';font-weight:400;font-size:6px;font-style:normal;fill:#0000FF;stroke:none;">Serum</text></g><g transform="matrix(0.393,0,0,0.517,51.284,74.527)"><text transform="matrix(1,0,0,1,0,6.413)" style="font-family:'Open Sans';font-weight:400;font-size:6px;font-style:normal;fill:#0000FF;stroke:none;">Name</text></g><g transform="matrix(0.393,0,0,0.517,94.004,85.503)"><text transform="matrix(1,0,0,1,0,6.413)" style="font-family:'Open Sans';font-weight:400;font-size:6px;font-style:normal;fill:#0000FF;stroke:none;">Drug1</text></g><g transform="matrix(0.393,0,0,0.517,109.203,104.649)"><text transform="matrix(1,0,0,1,0,6.413)" style="font-family:'Open Sans';font-weight:400;font-size:6px;font-style:normal;fill:#0000FF;stroke:none;">Serum</text></g><g transform="matrix(0.393,0,0,0.517,124.391,91.055)"><text transform="matrix(1,0,0,1,0,7.482)" style="font-family:'Open Sans';font-weight:400;font-size:7px;font-style:normal;fill:#0000FF;stroke:none;">Name</text></g><g transform="matrix(0.393,0,0,0.517,156.892,117.057)"><text transform="matrix(1,0,0,1,0,7.482)" style="font-family:'Open Sans';font-weight:400;font-size:7px;font-style:normal;fill:#0000FF;stroke:none;">Drug1</text></g><g transform="matrix(0.393,0,0,0.517,172.091,136.204)"><text transform="matrix(1,0,0,1,0,7.482)" style="font-family:'Open Sans';font-weight:400;font-size:7px;font-style:normal;fill:#0000FF;stroke:none;">Serum</text></g><g transform="matrix(0.393,0,0,0.517,187.279,122.61)"><text transform="matrix(1,0,0,1,0,7.482)" style="font-family:'Open Sans';font-weight:400;font-size:7px;font-style:normal;fill:#0000FF;stroke:none;">Name</text></g><g transform="matrix(0.393,0,0,0.517,117.587,13.378)"><text transform="matrix(1,0,0,1,0,7.482)" style="font-family:'Open Sans';font-weight:400;font-size:7px;font-style:normal;fill:#0000FF;stroke:none;">Drug1</text></g><g transform="matrix(0.393,0,0,0.517,132.786,32.525)"><text transform="matrix(1,0,0,1,0,7.482)" style="font-family:'Open Sans';font-weight:400;font-size:7px;font-style:normal;fill:#0000FF;stroke:none;">Serum</text></g><g transform="matrix(0.393,0,0,0.517,147.974,18.931)"><text transform="matrix(1,0,0,1,0,7.482)" style="font-family:'Open Sans';font-weight:400;font-size:7px;font-style:normal;fill:#0000FF;stroke:none;">Name</text></g></g></g></svg>